{
	"patcher" : 	{
		"fileversion" : 1,
		"appversion" : 		{
			"major" : 7,
			"minor" : 2,
			"revision" : 4,
			"architecture" : "x64",
			"modernui" : 1
		}
,
		"rect" : [ 59.0, 104.0, 880.0, 628.0 ],
		"bglocked" : 0,
		"openinpresentation" : 0,
		"default_fontsize" : 12.0,
		"default_fontface" : 0,
		"default_fontname" : "Arial",
		"gridonopen" : 1,
		"gridsize" : [ 15.0, 15.0 ],
		"gridsnaponopen" : 1,
		"objectsnaponopen" : 1,
		"statusbarvisible" : 2,
		"toolbarvisible" : 1,
		"lefttoolbarpinned" : 0,
		"toptoolbarpinned" : 0,
		"righttoolbarpinned" : 0,
		"bottomtoolbarpinned" : 0,
		"toolbars_unpinned_last_save" : 0,
		"tallnewobj" : 0,
		"boxanimatetime" : 200,
		"enablehscroll" : 1,
		"enablevscroll" : 1,
		"devicewidth" : 0.0,
		"description" : "",
		"digest" : "",
		"tags" : "",
		"style" : "",
		"subpatcher_template" : "",
		"boxes" : [ 			{
				"box" : 				{
					"id" : "obj-16",
					"maxclass" : "newobj",
					"numinlets" : 4,
					"numoutlets" : 3,
					"outlettype" : [ "signal", "signal", "list" ],
					"patching_rect" : [ 444.0, 430.0, 106.0, 22.0 ],
					"style" : "",
					"text" : "matrix~ 4 2"
				}

			}
, 			{
				"box" : 				{
					"columns" : 4,
					"id" : "obj-11",
					"maxclass" : "matrixctrl",
					"numinlets" : 1,
					"numoutlets" : 2,
					"outlettype" : [ "list", "list" ],
					"parameter_enable" : 0,
					"patching_rect" : [ 593.0, 488.5, 70.5, 41.5 ],
					"presentation_rect" : [ 45.0, 45.0, 66.0, 66.0 ],
					"rows" : 2,
					"scale" : 0,
					"style" : ""
				}

			}
, 			{
				"box" : 				{
					"data" : 					{
						"clips" : [ 							{
								"filename" : "jongly.aif",
								"filekind" : "audiofile",
								"loop" : 1,
								"content_state" : 								{
									"originallengthms" : [ 0.0 ],
									"followglobaltempo" : [ 0 ],
									"mode" : [ "basic" ],
									"pitchshift" : [ 1.0 ],
									"slurtime" : [ 0.0 ],
									"pitchcorrection" : [ 0 ],
									"quality" : [ "basic" ],
									"formantcorrection" : [ 0 ],
									"speed" : [ 1.0 ],
									"originallength" : [ 0.0, "ticks" ],
									"formant" : [ 1.0 ],
									"basictuning" : [ 440 ],
									"originaltempo" : [ 120.0 ],
									"play" : [ 0 ],
									"timestretch" : [ 0 ]
								}

							}
 ]
					}
,
					"id" : "obj-23",
					"maxclass" : "playlist~",
					"numinlets" : 1,
					"numoutlets" : 5,
					"outlettype" : [ "signal", "signal", "signal", "", "dictionary" ],
					"patching_rect" : [ 588.0, 277.0, 150.0, 30.0 ],
					"style" : ""
				}

			}
, 			{
				"box" : 				{
					"id" : "obj-20",
					"maxclass" : "comment",
					"numinlets" : 1,
					"numoutlets" : 0,
					"patching_rect" : [ 576.0, 179.0, 150.0, 20.0 ],
					"style" : "",
					"text" : "route audio 2 vers sortie"
				}

			}
, 			{
				"box" : 				{
					"id" : "obj-18",
					"maxclass" : "comment",
					"numinlets" : 1,
					"numoutlets" : 0,
					"patching_rect" : [ 170.0, 186.0, 150.0, 20.0 ],
					"style" : "",
					"text" : "route audio 1 vers sortie"
				}

			}
, 			{
				"box" : 				{
					"id" : "obj-6",
					"maxclass" : "ezdac~",
					"numinlets" : 2,
					"numoutlets" : 0,
					"patching_rect" : [ 461.5, 520.0, 45.0, 45.0 ],
					"style" : ""
				}

			}
, 			{
				"box" : 				{
					"id" : "obj-37",
					"maxclass" : "message",
					"numinlets" : 2,
					"numoutlets" : 1,
					"outlettype" : [ "" ],
					"patching_rect" : [ 576.0, 212.0, 174.0, 22.0 ],
					"style" : "",
					"text" : "0 0 0, 1 1 0, 2 0 1, 3 1 1, dump"
				}

			}
, 			{
				"box" : 				{
					"id" : "obj-35",
					"maxclass" : "message",
					"numinlets" : 2,
					"numoutlets" : 1,
					"outlettype" : [ "" ],
					"patching_rect" : [ 166.0, 212.0, 174.0, 22.0 ],
					"style" : "",
					"text" : "2 0 0, 3 1 0, 0 0 1, 1 1 1, dump"
				}

			}
, 			{
				"box" : 				{
					"data" : 					{
						"clips" : [ 							{
								"filename" : "morph.256.rom.aif",
								"filekind" : "audiofile",
								"loop" : 1,
								"content_state" : 								{
									"originallengthms" : [ 0.0 ],
									"followglobaltempo" : [ 0 ],
									"mode" : [ "basic" ],
									"pitchshift" : [ 1.0 ],
									"slurtime" : [ 0.0 ],
									"pitchcorrection" : [ 0 ],
									"quality" : [ "basic" ],
									"formantcorrection" : [ 0 ],
									"speed" : [ 1.0 ],
									"originallength" : [ 0.0, "ticks" ],
									"formant" : [ 1.0 ],
									"basictuning" : [ 440 ],
									"originaltempo" : [ 120.0 ],
									"play" : [ 0 ],
									"timestretch" : [ 0 ]
								}

							}
 ]
					}
,
					"id" : "obj-7",
					"maxclass" : "playlist~",
					"numinlets" : 1,
					"numoutlets" : 5,
					"outlettype" : [ "signal", "signal", "signal", "", "dictionary" ],
					"patching_rect" : [ 173.0, 294.0, 150.0, 30.0 ],
					"style" : ""
				}

			}
 ],
		"lines" : [ 			{
				"patchline" : 				{
					"destination" : [ "obj-11", 0 ],
					"disabled" : 0,
					"hidden" : 0,
					"source" : [ "obj-16", 2 ]
				}

			}
, 			{
				"patchline" : 				{
					"destination" : [ "obj-6", 1 ],
					"disabled" : 0,
					"hidden" : 0,
					"source" : [ "obj-16", 1 ]
				}

			}
, 			{
				"patchline" : 				{
					"destination" : [ "obj-6", 0 ],
					"disabled" : 0,
					"hidden" : 0,
					"source" : [ "obj-16", 0 ]
				}

			}
, 			{
				"patchline" : 				{
					"destination" : [ "obj-16", 3 ],
					"disabled" : 0,
					"hidden" : 0,
					"source" : [ "obj-23", 1 ]
				}

			}
, 			{
				"patchline" : 				{
					"destination" : [ "obj-16", 2 ],
					"disabled" : 0,
					"hidden" : 0,
					"source" : [ "obj-23", 0 ]
				}

			}
, 			{
				"patchline" : 				{
					"destination" : [ "obj-16", 0 ],
					"disabled" : 0,
					"hidden" : 0,
					"source" : [ "obj-35", 0 ]
				}

			}
, 			{
				"patchline" : 				{
					"destination" : [ "obj-16", 0 ],
					"disabled" : 0,
					"hidden" : 0,
					"source" : [ "obj-37", 0 ]
				}

			}
, 			{
				"patchline" : 				{
					"destination" : [ "obj-16", 1 ],
					"disabled" : 0,
					"hidden" : 0,
					"source" : [ "obj-7", 1 ]
				}

			}
, 			{
				"patchline" : 				{
					"destination" : [ "obj-16", 0 ],
					"disabled" : 0,
					"hidden" : 0,
					"source" : [ "obj-7", 0 ]
				}

			}
 ],
		"dependency_cache" : [ 			{
				"name" : "morph.256.rom.aif",
				"bootpath" : "C74:/packages/BEAP/misc",
				"type" : "AIFF",
				"implicit" : 1
			}
, 			{
				"name" : "jongly.aif",
				"bootpath" : "C74:/media/msp",
				"type" : "AIFF",
				"implicit" : 1
			}
 ],
		"autosave" : 0
	}

}
